<svg fill="none" xmlns="http://www.w3.org/2000/svg"><path fill-rule="evenodd" clip-rule="evenodd" d="M238.324 26.15c.366 4.704-3.333 8.705-8.049 8.879l-91.368 3.365c-2.186.079-3.886 1.918-3.886 4.106 0 2.189 1.7 4.026 3.886 4.107l94.992 3.497c2.714.1 4.84 2.394 4.676 5.107-.164 2.71-2.546 4.71-5.253 4.482l-58.972-4.956c-2.85-.24-5.346 1.877-5.691 4.716-.347 2.841 1.566 5.5 4.391 5.953l58.434 9.353c2.553.409 4.334 2.719 4.076 5.241h-25.99l-20.186-4.218c-3.06-.64-6.05 1.246-6.93 4.218H55.622l44.805-31.04c4.331-3.002 4.331-9.406 0-12.405L47.666 0h133.479c1.072 2.783 4.034 4.438 6.981 3.715L203.245 0h30.704a4.88 4.88 0 0 1-3.704 3.266L154.53 18.112c-2.456.482-4.048 2.864-3.66 5.337.391 2.472 2.638 4.247 5.122 3.951l73.01-8.711c4.687-.56 8.956 2.753 9.322 7.46M77.4 48.96 32.597 80h-9.57v-9.325L54.371 48.96c4.331-3 4.331-9.405 0-12.404L23.027 14.838V0h1.612l52.76 36.555c4.332 2.999 4.332 9.403 0 12.404M1.61 0l21.417 14.838v55.837L9.567 80H0V0z" fill="#fff" fill-opacity=".2"/></svg>