<svg width="24" height="24" viewBox="0 0 24 24" fill="none" xmlns="http://www.w3.org/2000/svg"><g clip-path="url(#a)"><path d="M12 24c6.627 0 12-5.373 12-12S18.627 0 12 0 0 5.373 0 12s5.373 12 12 12" fill="url(#b)"/><path fill-rule="evenodd" clip-rule="evenodd" d="M23.985 11.054a.48.48 0 0 1-.466.514l-5.283.194a.236.236 0 0 0-.225.238c0 .127.098.233.225.238l5.493.202a.28.28 0 0 1 .27.295.28.28 0 0 1-.303.26l-3.41-.287a.31.31 0 0 0-.33.272c-.02.165.09.319.254.345l3.38.54a.28.28 0 0 1 .232.327.28.28 0 0 1-.334.22l-2.333-.487a.347.347 0 0 0-.405.26.347.347 0 0 0 .236.418l2.29.661a.28.28 0 0 1 .192.353.28.28 0 0 1-.358.178l-4.226-1.439a.27.27 0 0 0-.337.162.27.27 0 0 0 .143.346l3.912 1.668a.48.48 0 0 1 .25.646.48.48 0 0 1-.658.209l-4.677-2.477a.23.23 0 0 0-.307.092.23.23 0 0 0 .074.312l4.656 2.931c.133.084.173.26.085.39a.28.28 0 0 1-.393.072l-2.805-1.956a.31.31 0 0 0-.427.072.31.31 0 0 0 .049.43l2.654 2.157c.122.1.14.279.038.398a.28.28 0 0 1-.398.024l-1.773-1.59a.35.35 0 0 0-.484.021.35.35 0 0 0-.005.485l1.65 1.716a.28.28 0 0 1-.01.4.28.28 0 0 1-.398-.025l-2.931-3.36a.274.274 0 0 0-.379-.03.274.274 0 0 0-.05.377l2.55 3.399a.48.48 0 0 1-.103.683.48.48 0 0 1-.677-.146l-2.82-4.478a.23.23 0 0 0-.311-.074.23.23 0 0 0-.092.307l2.575 4.862a.28.28 0 0 1-.12.381.28.28 0 0 1-.377-.133l-1.452-3.1a.31.31 0 0 0-.4-.15.31.31 0 0 0-.172.392l1.216 3.202a.28.28 0 0 1-.166.364.28.28 0 0 1-.358-.18l-.74-2.265a.347.347 0 0 0-.428-.222.347.347 0 0 0-.245.414l.569 2.316a.28.28 0 0 1-.209.341.28.28 0 0 1-.334-.221l-.859-4.379a.27.27 0 0 0-.308-.212.27.27 0 0 0-.229.297l.504 4.222a.477.477 0 0 1-.431.539.48.48 0 0 1-.514-.465l-.194-5.284A.236.236 0 0 0 12 18.01a.236.236 0 0 0-.238.225l-.202 5.493a.28.28 0 0 1-.295.27.28.28 0 0 1-.26-.303l.287-3.41a.31.31 0 0 0-.273-.33.31.31 0 0 0-.344.254l-.54 3.38a.28.28 0 0 1-.327.232.28.28 0 0 1-.22-.334l.487-2.333a.347.347 0 0 0-.26-.405.347.347 0 0 0-.419.236l-.66 2.29a.28.28 0 0 1-.353.192.28.28 0 0 1-.178-.358l1.439-4.226a.27.27 0 0 0-.162-.337.27.27 0 0 0-.346.143l-1.668 3.912a.48.48 0 0 1-.646.25.48.48 0 0 1-.21-.658l2.478-4.677a.23.23 0 0 0-.092-.307.23.23 0 0 0-.312.074L5.755 21.94a.28.28 0 0 1-.39.085.28.28 0 0 1-.073-.393l1.957-2.805a.31.31 0 0 0-.072-.426.31.31 0 0 0-.43.048L4.59 21.103a.28.28 0 0 1-.398.038.28.28 0 0 1-.024-.398l1.59-1.773a.35.35 0 0 0-.021-.484.35.35 0 0 0-.485-.005l-1.716 1.65a.28.28 0 0 1-.4-.01.28.28 0 0 1 .025-.398l3.36-2.931a.274.274 0 0 0 .03-.379.274.274 0 0 0-.377-.05l-3.399 2.55a.48.48 0 0 1-.683-.103.48.48 0 0 1 .146-.677l4.478-2.82a.23.23 0 0 0 .074-.311.23.23 0 0 0-.307-.092L1.62 17.485a.28.28 0 0 1-.382-.12.28.28 0 0 1 .134-.377l3.1-1.452a.31.31 0 0 0 .15-.4.31.31 0 0 0-.393-.172l-3.2 1.216a.28.28 0 0 1-.365-.165.28.28 0 0 1 .18-.36l2.265-.74a.347.347 0 0 0 .222-.427.347.347 0 0 0-.414-.245l-2.316.569a.28.28 0 0 1-.341-.209.28.28 0 0 1 .221-.334l4.379-.859a.27.27 0 0 0 .211-.308.27.27 0 0 0-.296-.229l-4.222.504a.477.477 0 0 1-.539-.431.48.48 0 0 1 .466-.514l5.283-.194A.236.236 0 0 0 5.99 12a.236.236 0 0 0-.225-.238L.271 11.56a.28.28 0 0 1-.27-.295.28.28 0 0 1 .303-.26l3.41.287a.31.31 0 0 0 .33-.272.31.31 0 0 0-.254-.345l-3.38-.54a.28.28 0 0 1-.232-.327.28.28 0 0 1 .334-.22l2.333.487a.347.347 0 0 0 .405-.26.35.35 0 0 0-.236-.418l-2.29-.661a.28.28 0 0 1-.192-.352.28.28 0 0 1 .358-.179l4.226 1.439a.27.27 0 0 0 .337-.162.27.27 0 0 0-.143-.346L1.398 7.468a.48.48 0 0 1-.25-.646.48.48 0 0 1 .658-.209L6.483 9.09a.23.23 0 0 0 .307-.092.23.23 0 0 0-.074-.312L2.06 5.755a.28.28 0 0 1-.086-.39.28.28 0 0 1 .394-.072l2.805 1.956a.31.31 0 0 0 .426-.072.31.31 0 0 0-.048-.43L2.897 4.59a.28.28 0 0 1-.038-.398.28.28 0 0 1 .398-.024l1.773 1.59a.35.35 0 0 0 .484-.021.35.35 0 0 0 .005-.485L3.868 3.536a.28.28 0 0 1 .01-.4.28.28 0 0 1 .399.025l2.931 3.36c.097.11.265.122.379.03a.274.274 0 0 0 .05-.377L5.086 2.775a.48.48 0 0 1 .104-.683.48.48 0 0 1 .677.146l2.82 4.478a.23.23 0 0 0 .311.074.23.23 0 0 0 .092-.307L6.515 1.62a.28.28 0 0 1 .12-.381.28.28 0 0 1 .377.133l1.452 3.1c.07.15.248.214.4.15a.31.31 0 0 0 .172-.392L7.82 1.029a.28.28 0 0 1 .165-.363.28.28 0 0 1 .36.179l.74 2.265a.347.347 0 0 0 .427.222.347.347 0 0 0 .245-.414L9.187.602a.28.28 0 0 1 .21-.341.28.28 0 0 1 .334.221l.858 4.379a.27.27 0 0 0 .31.211.27.27 0 0 0 .228-.296L10.623.554a.477.477 0 0 1 .431-.539.48.48 0 0 1 .514.466l.194 5.283a.236.236 0 0 0 .238.225.236.236 0 0 0 .238-.225L12.44.271a.28.28 0 0 1 .295-.27.28.28 0 0 1 .26.303l-.287 3.41a.31.31 0 0 0 .272.33.31.31 0 0 0 .345-.254l.54-3.38a.28.28 0 0 1 .326-.232.28.28 0 0 1 .221.334l-.487 2.333a.347.347 0 0 0 .26.405.347.347 0 0 0 .418-.236l.661-2.29a.28.28 0 0 1 .353-.192.28.28 0 0 1 .178.358l-1.439 4.226a.27.27 0 0 0 .162.337.27.27 0 0 0 .346-.143l1.668-3.912a.48.48 0 0 1 .645-.25.48.48 0 0 1 .21.658L14.91 6.483a.23.23 0 0 0 .092.307.23.23 0 0 0 .312-.074l2.931-4.656a.28.28 0 0 1 .39-.085.28.28 0 0 1 .072.393l-1.956 2.805a.31.31 0 0 0 .072.426.31.31 0 0 0 .43-.048l2.157-2.654a.28.28 0 0 1 .398-.038.28.28 0 0 1 .024.398l-1.59 1.773a.35.35 0 0 0 .021.484.35.35 0 0 0 .485.005l1.716-1.651a.28.28 0 0 1 .4.01.28.28 0 0 1-.025.399l-3.36 2.931a.274.274 0 0 0-.03.379.274.274 0 0 0 .377.05l3.399-2.551a.48.48 0 0 1 .683.104.48.48 0 0 1-.146.677l-4.478 2.82a.23.23 0 0 0-.074.311.23.23 0 0 0 .307.092l4.862-2.575a.28.28 0 0 1 .381.12.28.28 0 0 1-.134.377l-3.099 1.452a.31.31 0 0 0-.15.4.31.31 0 0 0 .392.172l3.202-1.216a.28.28 0 0 1 .363.166.28.28 0 0 1-.179.358l-2.265.74a.347.347 0 0 0-.222.428c.051.179.233.29.414.245l2.316-.569a.28.28 0 0 1 .341.209.28.28 0 0 1-.221.334l-4.379.859a.27.27 0 0 0-.212.308.27.27 0 0 0 .297.229l4.222-.504a.477.477 0 0 1 .539.431m-10.5 1.224a.32.32 0 0 0 0-.526L11.534 10.4v-.922l3.283 2.274a.32.32 0 0 1 0 .526l-3.283 2.274v-.923zm-3.283 2.274V9.478l1.332.922v3.23zm0 0-.83.575a.32.32 0 0 1-.501-.263V9.166c0-.258.29-.41.502-.263l.83.575v-.312c0-.258.29-.41.502-.263l.829.575v-.312c0-.258.29-.41.502-.263l4.112 2.849a.32.32 0 0 1 0 .526l-4.112 2.849a.32.32 0 0 1-.502-.263v-.312l-.83.575a.32.32 0 0 1-.502-.263z" fill="#000010"/></g><defs><linearGradient id="b" x1="0" y1="12" x2="24" y2="12" gradientUnits="userSpaceOnUse"><stop stop-color="#4788EA"/><stop offset=".5" stop-color="#79CBCA"/><stop offset="1" stop-color="#E684AE"/></linearGradient><clipPath id="a"><path fill="#fff" d="M0 0h24v24H0z"/></clipPath></defs></svg>