<svg fill="none" xmlns="http://www.w3.org/2000/svg"><g opacity=".6"><path fill-rule="evenodd" clip-rule="evenodd" d="M188.852 37.675c3.766 0 12.148 10.823 12.148 10.823h-18.833c1.526-2.37 2.294-4.597 2.919-6.406.917-2.658 1.525-4.417 3.766-4.417m-20.81-2.117c1.413 6.47 2.825 12.94 4.709 12.94h-51.208a.3.3 0 0 1-.06 0H4.417s7.731-7.82 11.044-15.748c2.02-4.835 7.158 2.084 11.714 8.218 2.915 3.926 5.591 7.53 7.06 7.53 1.884 0 2.614-5.847 3.343-11.695s1.46-11.695 3.342-11.695c1.884 0 3.296 5.848 4.709 11.695s2.825 11.695 4.708 11.695 3.296-10.83 4.708-21.66c.896-6.866 1.791-13.732 2.806-17.838h3.804c1.016 4.106 1.911 10.972 2.807 17.838 1.412 10.83 2.825 21.66 4.708 21.66s3.296-4.134 4.708-8.27c1.412-4.134 2.825-8.269 4.708-8.269s3.296 4.135 4.708 8.27 2.825 8.27 4.709 8.27 3.295-1.956 4.708-3.91c1.412-1.956 2.825-3.91 4.708-3.91s3.296 1.954 4.708 3.91c1.413 1.954 2.825 3.91 4.709 3.91s3.295-4.603 4.708-9.205c1.412-4.601 2.825-9.203 4.708-9.203 1.138 0 2.103 5.273 3.001 10.175.772 4.214 1.493 8.153 2.23 8.232h.06c.36-.038.705-.781 1.182-1.807 1.132-2.436 3.005-6.47 7.594-6.47.957 0 1.622 1.557 2.376 3.32.983 2.303 2.117 4.957 4.25 4.957s3.267-3.47 4.25-6.482c.753-2.305 1.418-4.34 2.376-4.34 2.297 0 2.979 2.925 3.633 5.734.604 2.594 1.185 5.088 2.994 5.088 1.883 0 4.225-6.47 6.568-12.94s4.685-12.941 6.568-12.941 3.296 6.47 4.708 12.94" fill="#fff" fill-opacity=".3"/><path fill-rule="evenodd" clip-rule="evenodd" d="M201 48.5s-7.299-12.187-10.346-20.625c-1.4-3.875-3.019 1.827-4.831 8.209-1.679 5.915-3.525 12.416-5.516 12.416zM173.805 9c.451 3.637.89 7.59 1.329 11.544 1.552 13.978 3.104 27.956 5.173 27.956H97.535c2.07 0 3.622-3.873 5.174-7.746s3.104-7.746 5.173-7.746 3.621 3.873 5.173 7.746 3.104 7.746 5.173 7.746 3.622-7.193 5.174-14.385c1.551-7.193 3.103-14.385 5.173-14.385s3.403 7.192 4.737 14.385S135.98 48.5 138.049 48.5s3.52-11.156 4.97-22.312c.838-6.447 1.676-12.894 2.634-17.188h4.672c.958 4.294 1.796 10.74 2.634 17.188 1.45 11.156 2.9 22.312 4.969 22.312s4.043-13.978 6.017-27.956c.558-3.953 1.116-7.907 1.676-11.544zM76.842 48.5S73.18 24.006 69.553 9h-7.756c-.661 4.537-1.278 9.94-1.886 15.272C58.506 36.577 57.145 48.5 55.383 48.5zm-45.728 0h24.269c-1.434 0-2.283-10.471-3.312-23.165-.427-5.259-.885-10.9-1.427-16.335H36.25c-.38 4.275-.715 8.678-1.037 12.921v.002c-1.077 14.173-2.02 26.577-4.1 26.577m-16.35 0h16.35c-2.844 0-4.021-9.873-4.997-18.051-.69-5.783-1.279-10.72-2.284-10.72-2.524 0-3.756 7.778-4.94 15.245C17.8 41.869 16.749 48.5 14.762 48.5m0 0c-2.273 0-3.202-2.527-4.04-4.806-.69-1.872-1.316-3.576-2.575-3.576-.906 0-6.79 8.382-6.79 8.382z" fill="#fff" fill-opacity=".3"/><path fill-rule="evenodd" clip-rule="evenodd" d="M188.852 59.325c3.766 0 12.148-10.823 12.148-10.823h-18.833c1.526 2.37 2.294 4.597 2.919 6.406.917 2.658 1.525 4.417 3.766 4.417m-20.81 2.117c1.413-6.47 2.825-12.94 4.709-12.94h-51.208a.3.3 0 0 0-.06 0H4.417s7.731 7.82 11.044 15.748c2.02 4.835 7.158-2.083 11.714-8.218 2.915-3.926 5.591-7.53 7.06-7.53 1.884 0 2.614 5.847 3.343 11.695s1.46 11.695 3.342 11.695c1.884 0 3.296-5.848 4.709-11.695s2.825-11.695 4.708-11.695 3.296 10.83 4.708 21.66c.973 7.458 1.946 14.917 3.072 18.838h3.273c1.126-3.921 2.099-11.38 3.072-18.838 1.412-10.83 2.825-21.66 4.708-21.66s3.296 4.135 4.708 8.27 2.825 8.269 4.708 8.269 3.296-4.135 4.708-8.27 2.825-8.27 4.709-8.27 3.295 1.956 4.708 3.91c1.412 1.956 2.825 3.91 4.708 3.91s3.296-1.954 4.708-3.91c1.413-1.954 2.825-3.91 4.709-3.91s3.295 4.603 4.708 9.205c1.412 4.601 2.825 9.203 4.708 9.203 1.138 0 2.103-5.273 3.001-10.175.772-4.213 1.493-8.153 2.23-8.232h.06c.36.038.705.781 1.182 1.807 1.132 2.436 3.005 6.47 7.594 6.47.957 0 1.622-1.557 2.376-3.32.983-2.303 2.117-4.957 4.25-4.957s3.267 3.471 4.25 6.482c.753 2.305 1.418 4.34 2.376 4.34 2.297 0 2.979-2.925 3.633-5.734.604-2.594 1.185-5.088 2.994-5.088 1.883 0 4.225 6.47 6.568 12.94s4.685 12.941 6.568 12.941 3.296-6.47 4.708-12.94" fill="#fff" fill-opacity=".3"/><path fill-rule="evenodd" clip-rule="evenodd" d="M201 48.5s-5.522 4.426-10.346 11.25c-1.987 2.81-3.656-.81-5.436-4.672-1.479-3.206-3.034-6.578-4.911-6.578zM173.844 89c.437-3.67.863-7.638 1.29-11.606 1.552-14.447 3.104-28.894 5.173-28.894H97.535c2.07 0 3.622 3.873 5.174 7.746s3.104 7.746 5.173 7.746 3.621-3.873 5.173-7.746 3.104-7.746 5.173-7.746 3.622 7.193 5.174 14.385c1.551 7.193 3.103 14.386 5.173 14.386s3.403-7.193 4.737-14.386S135.98 48.5 138.049 48.5s3.52 12.094 4.97 24.188c.709 5.907 1.417 11.814 2.197 16.312h5.545c.781-4.498 1.489-10.405 2.198-16.312 1.45-12.094 2.9-24.188 4.969-24.188s4.043 14.447 6.017 28.893c.542 3.97 1.084 7.938 1.628 11.607zM76.842 48.5s-3.83 25.611-7.534 40.5h-7.362c-.718-4.73-1.381-10.543-2.035-16.272C58.506 60.423 57.145 48.5 55.383 48.5zm-45.728 0h24.269c-1.434 0-2.283 10.471-3.312 23.165-.453 5.582-.94 11.594-1.529 17.335h-14.2c-.42-4.587-.78-9.347-1.129-13.923-1.076-14.173-2.019-26.577-4.1-26.577m-16.35 0h16.35c-2.844 0-4.021 9.873-4.997 18.051-.69 5.783-1.279 10.72-2.284 10.72-2.524 0-3.756-7.778-4.94-15.245C17.8 55.131 16.749 48.5 14.762 48.5m0 0c-2.273 0-3.202 2.527-4.04 4.806-.69 1.872-1.316 3.576-2.575 3.576-.906 0-6.79-8.382-6.79-8.382z" fill="#fff" fill-opacity=".3"/><rect width="200.875" height="-.529" rx="-.265" transform="matrix(1 0 0 -1 0 48.5)" fill="url(#a)" fill-opacity=".6"/></g><defs><linearGradient id="a" x1="0" y1="-.265" x2="200.875" y2="-.265" gradientUnits="userSpaceOnUse"><stop stop-color="#fff" stop-opacity="0"/><stop offset=".056" stop-color="#fff"/><stop offset=".495" stop-color="#fff"/><stop offset=".928" stop-color="#fff"/><stop offset="1" stop-color="#fff" stop-opacity="0"/></linearGradient></defs></svg>